<?xml version="1.0" encoding="utf-8"?>
<!-- Generator: Adobe Illustrator 27.0.1, SVG Export Plug-In . SVG Version: 6.00 Build 0)  -->
<svg version="1.1" id="Capa_1" xmlns="http://www.w3.org/2000/svg" xmlns:xlink="http://www.w3.org/1999/xlink" x="0px" y="0px"
	 viewBox="0 0 32 32" style="enable-background:new 0 0 32 32;" xml:space="preserve">
<style type="text/css">
	.st0{fill:#01FFFF;}
	.st1{fill:#FF0000;}
	.st2{fill:none;}
	.st3{fill:#FFFFFF;}
	.st4{font-family:'Nasalization';}
	.st5{font-size:9.6744px;}
</style>
<g>
	<path class="st0" d="M1.34,18.31c-1.77-1.03-1.77-2.45-0.12-3.62C1.8,14.28,21.29,2.93,21.88,2.55c0.88-0.58,1.77-1.03,4.13-2.2
		c1.74-0.86,2.83,0.39,2.71,2.2c-0.09,1.42,0,26.07,0,27.32c0,1.25-0.83,2.13-2.01,2.13c-0.4,0-1.2-0.34-2.6-1.03
		C19.76,28.81,2.33,18.88,1.34,18.31z"/>
</g>
<g>
	<path class="st1" d="M30.65,13.72c1.78,1.04,1.78,2.46,0.12,3.63c-0.58,0.41-20.16,11.78-20.75,12.17
		c-0.89,0.58-1.78,1.04-4.15,2.2c-1.75,0.86-2.85-0.39-2.73-2.2c0.09-1.42,0-26.13,0-27.39S3.98,0.01,5.16,0
		c0.4,0,1.2,0.34,2.61,1.04C12.16,3.2,29.66,13.15,30.65,13.72z"/>
</g>
<rect x="3.2" y="12.28" class="st2" width="25.47" height="7.37"/>
<text transform="matrix(0.84 0 0 1 5.603 18.7119)" class="st3 st4 st5">HASH</text>
</svg>
